# xmcd CD database file
#
# Track frame offsets:
#	150
#	12812
#	22173
#	32181
#	43601
#	54422
#	65997
#	78542
#	92227
#	102810
#	116189
#	128608
#	140631
#	152392
#	164588
#	177334
#	190486
#	201650
#	212001
#	224608
#	234719
#	244744
#	256922
#	268418
#	281087
#	292438
#	304839
#
# Disc length: 4232 seconds
#
# Revision: 0
# Processed by: cddbd v1.5.2PL0 Copyright (c) Steve Scherf et al.
# Submitted via: Feurio! 1.68 - http://www.feurio.com
#
DISCID=b410861b
DTITLE=Various Artist - Memphis and The South 1949-1955 - CD1 
DYEAR=1900
DGENRE=Blues
TTITLE0=Joe Hill Louis - Don't Trust Your Best Friend
TTITLE1=Lightnin' Slim - Bugger Bugger Boy
TTITLE2=Schoolboy Cleve - She's Gone
TTITLE3=Jerry McCain - Stay Out Of Automobiles
TTITLE4=J.D. Horton - Why Don't You Let Me Be
TTITLE5=Little Sam Davis - Going Home To Mother
TTITLE6=Big Joe Williams - She's A Jiving Woman
TTITLE7=Lost John Hunter - Y M and V Blues
TTITLE8=Country Jim - Phillipine Blues
TTITLE9=Lightnin' Slim - Bad Luck
TTITLE10=Louis Campbell - A Call On The Phone
TTITLE11=Willie Nix - Truckin' Little Woman
TTITLE12=Doctor Ross - Country Clown
TTITLE13=Percy Lee Crudup - Open Your Book
TTITLE14=Willie Love - V8 Ford Blues
TTITLE15=Tommy Lee - Packin' Up My Blues
TTITLE16=Luther Huff - Rosalee
TTITLE17=Little Sam Davis - 1958 Blues
TTITLE18=Willie Love - Shady Lane Blues
TTITLE19=Papa Lightfoot - Jumpin' Wih Jarvis
TTITLE20=John Lee - Blind's Blues
TTITLE21=Jerry Mccain - Wine O Wine
TTITLE22=Joe Hill Louis - Jumpin' And A Shufflin'
TTITLE23=Luther Huff - Bulldog Blues
TTITLE24=Willie Love - 21 Minutes To 9
TTITLE25=Country Jim - I'll Take You Back
TTITLE26=Hot Rod Happy - Worried Blues
EXTD=
EXTT0=
EXTT1=
EXTT2=
EXTT3=
EXTT4=
EXTT5=
EXTT6=
EXTT7=
EXTT8=
EXTT9=
EXTT10=
EXTT11=
EXTT12=
EXTT13=
EXTT14=
EXTT15=
EXTT16=
EXTT17=
EXTT18=
EXTT19=
EXTT20=
EXTT21=
EXTT22=
EXTT23=
EXTT24=
EXTT25=
EXTT26=
PLAYORDER=
